# xmcd CD database file
#
# Track frame offsets:
#	150
#	13434
#	26422
#	35831
#	58603
#	72690
#	82896
#	100232
#	115279
#	123855
#	136060
#	151349
#	161062
#	171893
#	189117
#
# Disc length: 2729 seconds
#
# Revision: 1
# Processed by: cddbd v1.5.1PL0 Copyright (c) Steve Scherf et al.
# Submitted via: CDex 1.51
#
DISCID=c60aa70f
DTITLE=Des Fais Do-Do - Mardi Blue Grass
DYEAR=1997
DGENRE=Cajun
TTITLE0=Les Veuves De La Coulée
TTITLE1=Parlez-Nous À Boire
TTITLE2=Tennessee Blues
TTITLE3=Travailler, C`est Trop Dûr
TTITLE4=La Porte D`en Arrière
TTITLE5=Fallen Eagle
TTITLE6=Je M'endors
TTITLE7=Under The Stormy Sky
TTITLE8=Mamou Two-Step
TTITLE9=The Swimming Song
TTITLE10=La Valse De La Bière
TTITLE11=Johnny Peut Pas Danser
TTITLE12=Can't You Hear Me Callin'
TTITLE13=Madeleine
TTITLE14=J`étais Au Bal
EXTD=YEAR: 1997
EXTT0=
EXTT1=
EXTT2=
EXTT3=
EXTT4=
EXTT5=
EXTT6=
EXTT7=
EXTT8=
EXTT9=
EXTT10=
EXTT11=
EXTT12=
EXTT13=
EXTT14=
PLAYORDER=
